<mxfile host="app.diagrams.net" agent="Mozilla/5.0 (Windows NT 10.0; Win64; x64) AppleWebKit/537.36 (KHTML, like Gecko) Chrome/137.0.0.0 Safari/537.36" version="27.1.3">
  <diagram name="Page-1" id="qY-i7OW9PCoXoJsaEN07">
    <mxGraphModel dx="888" dy="434" grid="1" gridSize="10" guides="1" tooltips="1" connect="1" arrows="1" fold="1" page="1" pageScale="1" pageWidth="827" pageHeight="1169" math="0" shadow="0">
      <root>
        <mxCell id="0" />
        <mxCell id="1" parent="0" />
        <mxCell id="M_5AUtzERIHW0-Ll7NTF-9" style="edgeStyle=orthogonalEdgeStyle;rounded=0;orthogonalLoop=1;jettySize=auto;html=1;startArrow=classic;startFill=1;" edge="1" parent="1" source="M_5AUtzERIHW0-Ll7NTF-2" target="M_5AUtzERIHW0-Ll7NTF-5">
          <mxGeometry relative="1" as="geometry" />
        </mxCell>
        <mxCell id="M_5AUtzERIHW0-Ll7NTF-2" value="CharacterMovement" style="rounded=1;whiteSpace=wrap;html=1;" vertex="1" parent="1">
          <mxGeometry x="369.5" y="110" width="130" height="30" as="geometry" />
        </mxCell>
        <mxCell id="M_5AUtzERIHW0-Ll7NTF-6" style="rounded=0;orthogonalLoop=1;jettySize=auto;html=1;entryX=0;entryY=0.5;entryDx=0;entryDy=0;startArrow=classic;startFill=1;" edge="1" parent="1" source="M_5AUtzERIHW0-Ll7NTF-3" target="M_5AUtzERIHW0-Ll7NTF-5">
          <mxGeometry relative="1" as="geometry" />
        </mxCell>
        <mxCell id="M_5AUtzERIHW0-Ll7NTF-3" value="CharacterInteraction" style="rounded=1;whiteSpace=wrap;html=1;" vertex="1" parent="1">
          <mxGeometry x="160" y="150" width="130" height="35" as="geometry" />
        </mxCell>
        <mxCell id="M_5AUtzERIHW0-Ll7NTF-8" style="rounded=0;orthogonalLoop=1;jettySize=auto;html=1;startArrow=classic;startFill=1;" edge="1" parent="1" source="M_5AUtzERIHW0-Ll7NTF-4" target="M_5AUtzERIHW0-Ll7NTF-5">
          <mxGeometry relative="1" as="geometry" />
        </mxCell>
        <mxCell id="M_5AUtzERIHW0-Ll7NTF-4" value="CharacterInventar" style="rounded=1;whiteSpace=wrap;html=1;" vertex="1" parent="1">
          <mxGeometry x="155" y="260" width="140" height="40" as="geometry" />
        </mxCell>
        <mxCell id="M_5AUtzERIHW0-Ll7NTF-5" value="Character" style="rounded=1;whiteSpace=wrap;html=1;" vertex="1" parent="1">
          <mxGeometry x="349" y="200" width="171" height="60" as="geometry" />
        </mxCell>
      </root>
    </mxGraphModel>
  </diagram>
</mxfile>
